<?xml version="1.0" standalone="no"?><!DOCTYPE svg PUBLIC "-//W3C//DTD SVG 1.1//EN" "http://www.w3.org/Graphics/SVG/1.1/DTD/svg11.dtd"><svg t="1564651935052" class="icon" viewBox="0 0 1024 1024" version="1.1" xmlns="http://www.w3.org/2000/svg" p-id="1626" xmlns:xlink="http://www.w3.org/1999/xlink" width="200" height="200"><defs><style type="text/css"></style></defs><path d="M853.333333 938.666667H170.666667a42.666667 42.666667 0 0 1-42.666667-42.666667V128a42.666667 42.666667 0 0 1 42.666667-42.666667h682.666666a42.666667 42.666667 0 0 1 42.666667 42.666667v768a42.666667 42.666667 0 0 1-42.666667 42.666667z m-42.666666-85.333334V170.666667H213.333333v682.666666h597.333334zM298.666667 256h170.666666v170.666667H298.666667V256z m0 256h426.666666v85.333333H298.666667v-85.333333z m0 170.666667h426.666666v85.333333H298.666667v-85.333333z m256-384h170.666666v85.333333h-170.666666V298.666667z" p-id="1627"></path></svg>