<?xml version="1.0" standalone="no"?><!DOCTYPE svg PUBLIC "-//W3C//DTD SVG 1.1//EN" "http://www.w3.org/Graphics/SVG/1.1/DTD/svg11.dtd"><svg t="1564108661368" class="icon" viewBox="0 0 1024 1024" version="1.1" xmlns="http://www.w3.org/2000/svg" p-id="2999" xmlns:xlink="http://www.w3.org/1999/xlink" width="200" height="200"><defs><style type="text/css"></style></defs><path d="M809.188 550.978c1.6-12.8 2.799-25.799 2.799-38.998s-1.2-26.198-2.799-38.998l84.596-66.197c7.6-6 9.8-16.799 4.8-25.599l-79.996-138.594c-5-8.6-15.399-12.199-24.399-8.6l-99.596 40.199c-20.599-15.8-43.198-29.198-67.597-39.398l-14.999-105.996c-1.8-9.399-9.999-16.799-20-16.799l-159.994 0c-9.999 0-18.199 7.4-19.799 16.799l-14.999 105.996c-24.399 10.2-46.999 23.399-67.597 39.398l-99.596-40.199c-9-3.4-19.399 0-24.399 8.6l-79.996 138.594c-5 8.6-2.8 19.399 4.8 25.599l84.397 66.197c-1.6 12.8-2.8 25.799-2.8 38.998 0 13.2 1.2 26.198 2.8 38.998l-84.397 66.197c-7.6 6-9.8 16.799-4.8 25.599l79.996 138.594c5 8.6 15.399 12.199 24.399 8.6l99.596-40.199c20.599 15.8 43.198 29.198 67.597 39.398l14.999 105.996c1.6 9.399 9.8 16.799 19.799 16.799l159.994 0c9.999 0 18.199-7.4 19.799-16.799l14.999-105.996c24.399-10.2 46.999-23.399 67.597-39.398l99.596 40.199c9 3.4 19.399 0 24.399-8.6l79.996-138.594c5-8.6 2.8-19.399-4.8-25.599l-84.396-66.197zM512 651.973c-77.396 0-139.994-62.598-139.994-139.994s62.598-139.994 139.994-139.994 139.994 62.598 139.994 139.994-62.598 139.994-139.994 139.994z" p-id="3000"></path></svg>