<?xml version="1.0" standalone="no"?><!DOCTYPE svg PUBLIC "-//W3C//DTD SVG 1.1//EN" "http://www.w3.org/Graphics/SVG/1.1/DTD/svg11.dtd"><svg t="1564108515383" class="icon" viewBox="0 0 1024 1024" version="1.1" xmlns="http://www.w3.org/2000/svg" p-id="1843" xmlns:xlink="http://www.w3.org/1999/xlink" width="200" height="200"><defs><style type="text/css"></style></defs><path d="M920.419872 418.785859l-76.229871 0c-7.654882-26.792088-18.339822-52.308363-31.735867-76.070394l54.859991-54.859991c24.718891-24.718891 24.718891-64.58807 0-89.306962l-44.653481-44.653481c-24.718891-24.718891-64.58807-24.718891-89.306962 0l-55.816851 55.816851c-22.32674-12.279707-46.248248-21.84831-71.286093-28.865286L606.25074 104.616726c0-34.765924-28.067902-62.833827-62.833827-62.833827l-62.833827 0c-34.765924 0-62.833827 28.067902-62.833827 62.833827l0 76.070394c-25.835228 7.335929-50.554119 17.542439-73.678243 30.300576l-57.411618-57.411618c-24.718891-24.718891-64.58807-24.718891-89.306962 0l-44.653481 44.653481c-24.718891 24.718891-24.718891 64.58807 0 89.306962l57.411618 57.411618c-12.917614 23.124124-22.964647 47.683538-30.300576 73.678243L103.580128 418.626382c-34.765924 0-62.833827 28.067902-62.833827 62.833827l0 62.833827c0 34.765924 28.067902 62.833827 62.833827 62.833827l76.229871 0c7.016976 24.878368 16.585579 48.959352 28.865286 71.286093l-55.816851 55.816851c-24.718891 24.718891-24.718891 64.58807 0 89.306962l44.653481 44.653481c24.718891 24.718891 64.58807 24.718891 89.306962 0l54.859991-54.859991c23.762031 13.555521 49.278306 24.240461 76.070394 31.735867l0 76.229871c0 34.765924 28.067902 62.833827 62.833827 62.833827l62.833827 0c34.765924 0 62.833827-28.067902 62.833827-62.833827L606.25074 845.2266c25.835228-7.335929 50.554119-17.542439 73.678243-30.300576l53.4247 53.4247c24.718891 24.718891 64.58807 24.718891 89.306962 0l44.653481-44.653481c24.718891-24.718891 24.718891-64.58807 0-89.306962L813.889425 680.965582c12.917614-23.124124 22.964647-47.683538 30.300576-73.678243l76.229871 0c34.765924 0 62.833827-28.227379 62.833827-62.833827L983.253699 481.619685C983.253699 447.013238 955.02632 418.785859 920.419872 418.785859M512 701.538078c-104.138296 0-188.50148-84.363183-188.50148-188.50148 0-104.138296 84.363183-188.50148 188.50148-188.50148 104.138296 0 188.50148 84.363183 188.50148 188.50148C700.50148 617.174895 616.138296 701.538078 512 701.538078M512 418.785859c-51.98941 0-94.25074 42.26133-94.25074 94.25074 0 51.98941 42.26133 94.25074 94.25074 94.25074 51.98941 0 94.25074-42.26133 94.25074-94.25074C606.25074 461.047189 563.98941 418.785859 512 418.785859" p-id="1844"></path></svg>